<svg id="Capa_1" data-name="Capa 1" xmlns="http://www.w3.org/2000/svg" viewBox="0 0 169 65"><title>Agromax-NavBar_NavBar</title><path d="M13.16,23.64,5.83,42.45h4.49l1.56-4.12h7l1.58,4.12h4.71L17.69,23.64ZM15.26,29c0-.11.07-.23.1-.37l0,.07,2.18,6H13.23Z" style="fill:#fff"/><path d="M33.08,34.87h3.86v3.85A7.13,7.13,0,0,1,35,39a6,6,0,0,1-2.41-.46,5.51,5.51,0,0,1-1.82-1.3,5.83,5.83,0,0,1-1.15-2,7.4,7.4,0,0,1-.39-2.42A6.19,6.19,0,0,1,30,29.73a4.9,4.9,0,0,1,2.11-2,7.06,7.06,0,0,1,3.19-.69,11.18,11.18,0,0,1,4.64,1l.43.19.29-3.94-.25-.08a16.62,16.62,0,0,0-5-.75,14.86,14.86,0,0,0-4.2.57,9.83,9.83,0,0,0-3.42,1.76,8.06,8.06,0,0,0-2.3,3A10.08,10.08,0,0,0,24.64,33a11.26,11.26,0,0,0,.72,4.18,7.87,7.87,0,0,0,2.09,3A8.71,8.71,0,0,0,30.72,42a14.1,14.1,0,0,0,4.19.58,17.87,17.87,0,0,0,6-1l.22-.08V31.22h-8Z" style="fill:#fff"/><path d="M54,33.81a2.8,2.8,0,0,0-.67-.66,4.33,4.33,0,0,0,2-1.31,4.54,4.54,0,0,0,1.07-3.09,4.69,4.69,0,0,0-1-3.16A5,5,0,0,0,52.84,24a12.93,12.93,0,0,0-3.35-.4H43.2V42.45h4.37V34.92a7.78,7.78,0,0,1,1.5.14,1.81,1.81,0,0,1,1,.54,4.58,4.58,0,0,1,.8,1.5l2.07,5.35h4.8l-2.81-6.79A10.17,10.17,0,0,0,54,33.81Zm-6.42-6.68h1.61c2.36,0,2.64,1.22,2.64,2.14A1.81,1.81,0,0,1,51,30.91a3.93,3.93,0,0,1-2.16.54H47.54Z" style="fill:#fff"/><path d="M75.09,29.21a9.39,9.39,0,0,0-1.75-3.15A7.94,7.94,0,0,0,70.42,24a10.16,10.16,0,0,0-3.93-.73,9.66,9.66,0,0,0-5,1.24A8.06,8.06,0,0,0,58.33,28,11.6,11.6,0,0,0,57.26,33a11.82,11.82,0,0,0,1.06,5.09,7.93,7.93,0,0,0,3.18,3.5,9.69,9.69,0,0,0,5,1.24,9.46,9.46,0,0,0,4.9-1.23,8.11,8.11,0,0,0,3.19-3.47,11.13,11.13,0,0,0,1.1-5A12.69,12.69,0,0,0,75.09,29.21Zm-6.57,9.65a3.78,3.78,0,0,1-2,.54,3.82,3.82,0,0,1-2.59-.9,5.46,5.46,0,0,1-1.57-2.38,9.29,9.29,0,0,1-.52-3,9.44,9.44,0,0,1,.52-3,5.54,5.54,0,0,1,1.56-2.4,3.68,3.68,0,0,1,2.58-.92,3.85,3.85,0,0,1,2,.54A4.59,4.59,0,0,1,70,28.73a7.2,7.2,0,0,1,.87,2.07,9.42,9.42,0,0,1,.28,2.28,9.22,9.22,0,0,1-.29,2.26A7.54,7.54,0,0,1,70,37.4,4.4,4.4,0,0,1,68.52,38.86Z" style="fill:#fff"/><path d="M137.37,31.66l-1.5,4.21H139l-1.61-4.41Z" style="fill:#fff"/><path d="M107.5,22.92c.26,4.22-.13,12.16-2.32,16.67A13.4,13.4,0,0,1,99.08,46h64.09v-23Zm21.18,18.82H125.4v-8.3c0-.57,0-1.14.07-1.71l-3.37,10h-2.92l-3-8.67c-.11-.32-.21-.64-.31-1,0,.43,0,.84,0,1.23v8.4h-3.15V27.62h4.8l2.53,7.31c.25.73.46,1.45.63,2.15,0-.09.05-.19.07-.28.11-.42.24-.86.38-1.28l2.66-7.9h4.86Zm25.85,0-3-5.08-3.06,5.08h-7.19l-1.19-3.08h-5.23l-1.16,3.08h-3.42l5.51-14.12h3.42l5.6,14,4.59-7.29-4.25-6.72h3.81l2.74,4.54,2.76-4.54H158l-4.28,6.72,4.71,7.4Z" style="fill:#fff"/><path d="M102.94,20.05l-.47-2.83-2.83.51c-.57.1-14,2.56-18.6,10.06a21.16,21.16,0,0,0-2,17.83l.5,1.72,1.77.29a14.81,14.81,0,0,0,2.21.15,19.82,19.82,0,0,0,15.19-7C105.09,33.45,103,20.59,102.94,20.05ZM84,42.11a14.59,14.59,0,0,1,1.83-11.36c2.27-3.7,8.89-5.92,11.76-6.73.12,2.83,0,9.41-3.17,13.09A14.15,14.15,0,0,1,84,42.11Z" style="fill:#bbc539"/></svg>