<svg id="Capa_1" data-name="Capa 1" xmlns="http://www.w3.org/2000/svg" viewBox="0 0 170 66"><defs><style>.cls-1{fill:#ebe7dd;}.cls-2{fill:#c5cf2f;}</style></defs><title>agromax</title><path class="cls-1" d="M13.23,24.08,5.85,43h4.53l1.56-4.14H19L20.62,43h4.74L17.79,24.08Zm2.11,5.39c0-.1.07-.22.11-.37a.45.45,0,0,1,0,.08l2.19,6H13.3Z"/><path class="cls-1" d="M33.27,35.39h3.89v3.86a7,7,0,0,1-2,.3,6,6,0,0,1-2.42-.46,5.25,5.25,0,0,1-1.83-1.31,5.78,5.78,0,0,1-1.16-2,7.41,7.41,0,0,1-.39-2.43,6.16,6.16,0,0,1,.76-3.16,4.91,4.91,0,0,1,2.13-2,7.12,7.12,0,0,1,3.21-.69,11.3,11.3,0,0,1,4.66,1l.43.2.3-4-.25-.08a16.86,16.86,0,0,0-5-.75,15,15,0,0,0-4.23.57,9.69,9.69,0,0,0-3.44,1.77,8.17,8.17,0,0,0-2.32,3,10.15,10.15,0,0,0-.81,4.18,11.41,11.41,0,0,0,.72,4.2,7.91,7.91,0,0,0,2.11,3.06,8.84,8.84,0,0,0,3.28,1.79,14.31,14.31,0,0,0,4.22.58,18,18,0,0,0,6-1l.22-.08V31.72h-8Z"/><path class="cls-1" d="M54.27,34.32a2.67,2.67,0,0,0-.67-.67,4.39,4.39,0,0,0,2-1.31,4.61,4.61,0,0,0,1.07-3.11,4.8,4.8,0,0,0-1-3.18,5,5,0,0,0-2.56-1.56,13.07,13.07,0,0,0-3.37-.41H43.45V43h4.4V35.43a7.9,7.9,0,0,1,1.51.14,1.82,1.82,0,0,1,1,.55,4.7,4.7,0,0,1,.8,1.5L53.21,43H58l-2.82-6.83A9.88,9.88,0,0,0,54.27,34.32Zm-6.45-6.73h1.62c2.38,0,2.65,1.23,2.65,2.16a1.79,1.79,0,0,1-.78,1.65,4,4,0,0,1-2.18.54H47.82Z"/><path class="cls-1" d="M75.53,29.69a9.17,9.17,0,0,0-1.76-3.17,7.89,7.89,0,0,0-2.93-2.09,10.11,10.11,0,0,0-4-.74,9.69,9.69,0,0,0-5,1.25,8,8,0,0,0-3.2,3.49,11.66,11.66,0,0,0-1.08,5.1,11.82,11.82,0,0,0,1.07,5.13,8.14,8.14,0,0,0,3.2,3.52,9.82,9.82,0,0,0,5,1.24,9.47,9.47,0,0,0,4.92-1.24A8.15,8.15,0,0,0,75,38.69a11.19,11.19,0,0,0,1.1-5A12.79,12.79,0,0,0,75.53,29.69ZM68.92,39.4a3.78,3.78,0,0,1-2,.54A3.84,3.84,0,0,1,64.27,39a5.55,5.55,0,0,1-1.58-2.39,9.39,9.39,0,0,1-.51-3,9.5,9.5,0,0,1,.51-3.07,5.72,5.72,0,0,1,1.57-2.42,3.74,3.74,0,0,1,2.6-.92,3.84,3.84,0,0,1,2.06.54,4.69,4.69,0,0,1,1.46,1.48,7.07,7.07,0,0,1,.88,2.09,9.46,9.46,0,0,1,.28,2.3,9.36,9.36,0,0,1-.29,2.27,7.32,7.32,0,0,1-.87,2.07A4.46,4.46,0,0,1,68.92,39.4Z"/><path class="cls-1" d="M138.19,32.15l-1.51,4.24h3.19L138.25,32C138.23,32,138.21,32.09,138.19,32.15Z"/><path class="cls-1" d="M108.14,23.36c.26,4.25-.14,12.24-2.33,16.77a13.6,13.6,0,0,1-6.14,6.43h64.48V23.36Zm21.31,18.93h-3.31V34c0-.57,0-1.15.07-1.72l-3.38,10.06h-2.94l-3-8.72c-.11-.32-.21-.64-.31-1,0,.43,0,.85,0,1.24v8.44h-3.16V28.09h4.82l2.55,7.35c.24.73.45,1.46.63,2.17,0-.1,0-.19.07-.29.11-.42.24-.86.38-1.29l2.68-7.94h4.89Zm26,0-3.05-5.11-3.07,5.11H142.1l-1.19-3.1h-5.27l-1.17,3.1H131l5.53-14.2H140l5.64,14.09,4.61-7.33L146,28.09h3.83l2.75,4.57,2.78-4.57h3.57l-4.3,6.76,4.73,7.44Z"/><path class="cls-2" d="M103.55,20.47l-.48-2.84-2.83.51c-.58.1-14.09,2.58-18.72,10.12a21.31,21.31,0,0,0-2,17.94l.5,1.73,1.78.29a13.65,13.65,0,0,0,2.23.15,19.9,19.9,0,0,0,15.27-7C105.71,34,103.64,21,103.55,20.47Zm-19,22.19a14.62,14.62,0,0,1,1.84-11.42c2.29-3.72,8.94-5.95,11.83-6.77.12,2.85,0,9.47-3.19,13.17A14.18,14.18,0,0,1,84.54,42.66Z"/></svg>