<svg id="Capa_1" data-name="Capa 1" 
xmlns="http://www.w3.org/2000/svg" 
viewBox="0 0 320.61 320.61">
<title>am01</title>
<path d="M37.11,90.19,16.16,143.92H29l4.43-11.77H53.57l4.51,11.77H71.53L50,90.19Zm6,15.31q.13-.45.3-1c0,.09.06.16.08.21l6.21,17.07H37.3Z" style="fill:#fff"/>
<path d="M94,122.28h11v11a19.47,19.47,0,0,1-5.66.85,17.16,17.16,0,0,1-6.88-1.32,15.16,15.16,0,0,1-5.2-3.72,16.26,16.26,0,0,1-3.28-5.6,21.06,21.06,0,0,1-1.12-6.9,17.67,17.67,0,0,1,2.17-9,14.11,14.11,0,0,1,6-5.62,20.32,20.32,0,0,1,9.11-2,32,32,0,0,1,13.24,2.88l1.23.55.84-11.27-.72-.22a48.07,48.07,0,0,0-14.25-2.13,42.81,42.81,0,0,0-12,1.61,28,28,0,0,0-9.78,5,23,23,0,0,0-6.56,8.62,28.74,28.74,0,0,0-2.33,11.87,32.5,32.5,0,0,0,2.06,11.94,22.19,22.19,0,0,0,6,8.67,25.13,25.13,0,0,0,9.32,5.09,40.65,40.65,0,0,0,12,1.66,51.08,51.08,0,0,0,17-2.75l.63-.22V111.86H94Z" style="fill:#fff"/>
<path d="M153.6,119.25a7.58,7.58,0,0,0-1.89-1.9,12.45,12.45,0,0,0,5.74-3.72,13.11,13.11,0,0,0,3-8.84c0-3.8-1-6.84-2.81-9a14.06,14.06,0,0,0-7.26-4.43,37.42,37.42,0,0,0-9.57-1.15h-18v53.73h12.47V122.41a22.56,22.56,0,0,1,4.3.4,5.13,5.13,0,0,1,2.72,1.55,13,13,0,0,1,2.28,4.27l5.93,15.29h13.7l-8-19.4A28.88,28.88,0,0,0,153.6,119.25Zm-18.32-19.09h4.6c6.75,0,7.53,3.49,7.53,6.11A5.12,5.12,0,0,1,145.2,111a11.29,11.29,0,0,1-6.19,1.56h-3.73Z" style="fill:#fff"/>
<path d="M214,106.09a26.15,26.15,0,0,0-5-9,22.25,22.25,0,0,0-8.31-6,28.92,28.92,0,0,0-11.22-2.08,27.52,27.52,0,0,0-14.24,3.53,22.9,22.9,0,0,0-9.08,9.9A33,33,0,0,0,163,117a33.43,33.43,0,0,0,3,14.54,22.72,22.72,0,0,0,9.08,10,27.63,27.63,0,0,0,14.26,3.55,27.07,27.07,0,0,0,14-3.53,23.27,23.27,0,0,0,9.11-9.9,31.93,31.93,0,0,0,3.12-14.27A36.43,36.43,0,0,0,214,106.09Zm-18.76,27.58a11.86,11.86,0,0,1-13.2-1,15.7,15.7,0,0,1-4.49-6.79,26.51,26.51,0,0,1,0-17.38,15.86,15.86,0,0,1,4.46-6.87A10.54,10.54,0,0,1,189.33,99a10.87,10.87,0,0,1,5.84,1.54,13.08,13.08,0,0,1,4.16,4.21,20,20,0,0,1,2.49,5.91,27.52,27.52,0,0,1,.8,6.53,26.4,26.4,0,0,1-.82,6.45,21.34,21.34,0,0,1-2.47,5.88A12.51,12.51,0,0,1,195.19,133.67Z" style="fill:#fff"/>
<path d="M109.87,184.19,105.31,197h9.63l-4.89-13.42Q110,183.94,109.87,184.19Z" style="fill:#fff"/>
<path d="M199.51,157.63H14.84v70.09H194.61l-1.27-4.41C190.42,213.18,182.84,186.7,199.51,157.63Zm-116,57.2h-10V189.62c0-1.73.12-3.46.2-5.2L63.44,214.83H54.58l-9.11-26.36c-.33-.95-.64-1.92-.95-2.89.06,1.3.08,2.55.08,3.74v25.51H35V171.9H49.62l7.69,22.23c.74,2.22,1.38,4.41,1.9,6.56.07-.3.14-.59.22-.87.33-1.28.72-2.6,1.15-3.9l8.1-24H83.46Zm78.59,0-9.2-15.44-9.29,15.44H121.68l-3.59-9.36H102.17l-3.53,9.36H88.25L105,171.9h10.39l17.05,42.61,13.94-22.17L133.46,171.9H145l8.32,13.83,8.39-13.83h10.8l-13,20.44,14.3,22.49Z" style="fill:#fff"/>
<path d="M304.2,120.67l-1.88-11.3-11.28,2c-2.28.4-56,10.26-74.39,40.22-19.3,31.44-10.94,60.4-7.79,71.3l2,6.88,7.07,1.16a58.23,58.23,0,0,0,8.86.58,79.14,79.14,0,0,0,60.71-27.85C312.8,174.26,304.57,122.84,304.2,120.67Zm-75.53,88.18c-2.58-11.91-3.65-27.54,7.3-45.38,9.09-14.79,35.53-23.67,47-26.93.45,11.33,0,37.63-12.69,52.34A56.44,56.44,0,0,1,228.67,208.85Z" style="fill:#bbc539"/>
</svg>